<svg width="66" height="36" viewBox="0 0 66 36" fill="none" xmlns="http://www.w3.org/2000/svg">
<path d="M20.9009 10.4164V22.5191C20.9009 22.9538 21.2532 23.306 21.6878 23.306H23.4078C23.8423 23.306 24.1946 22.9538 24.1946 22.5191V16.9526C24.1946 16.6439 24.5527 16.4738 24.7922 16.6683L25.7641 17.4587C25.9936 17.6455 26.127 17.9257 26.127 18.2218V22.5191C26.127 22.9538 26.4792 23.306 26.9138 23.306H28.6374C29.072 23.306 29.4244 22.9538 29.4244 22.5191L29.4242 19.9611C29.4242 19.6479 29.7132 19.4152 30.0188 19.4814L30.9352 19.6796C31.179 19.7322 31.353 19.9482 31.353 20.1976V22.5156C31.353 22.95 31.7052 23.3022 32.1398 23.3022H33.8637C34.298 23.3022 34.6502 22.95 34.6502 22.5156V20.2012C34.6502 19.9514 34.8251 19.7354 35.0693 19.6832L35.982 19.4881C36.2875 19.4226 36.5752 19.6557 36.5752 19.9678V22.5191C36.5752 22.9538 36.9277 23.306 37.3621 23.306H39.0858C39.5206 23.306 39.8728 22.9538 39.8728 22.5191V18.2288C39.8728 17.9328 40.0062 17.6526 40.2357 17.4659L41.2076 16.676C41.447 16.4813 41.805 16.6518 41.805 16.9603V22.5191C41.805 22.9538 42.1573 23.306 42.592 23.306H44.3118C44.7466 23.306 45.0988 22.9538 45.0988 22.5191V10.4164C45.0988 9.73122 44.5431 9.17578 43.8583 9.17578H22.1415C21.4563 9.17578 20.9009 9.73122 20.9009 10.4164Z" fill="url(#paint0_linear_13_15100)"/>
<path d="M43.5136 2.69909C42.966 1.2214 41.7025 0.332923 39.7591 0.0582521C38.4151 -0.137329 37.0963 0.158396 35.727 0.963452C35.1173 1.32504 34.5408 1.72789 33.9308 2.15427L33.8535 2.20825C33.5923 2.39065 33.3271 2.57575 33.0502 2.76318L32.8837 2.87623C32.6841 2.70813 31.8477 2.00517 31.643 1.85123C30.4675 0.962195 29.3737 0.42226 28.2008 0.151641C26.3521 -0.272359 24.339 0.27526 23.1906 1.51489C22.0357 2.75885 21.9669 4.393 23.0154 5.67791C24.0825 6.99485 25.998 7.63218 27.896 7.30087C29.5392 7.0119 30.7941 6.18458 31.7033 5.49639C31.9381 5.32238 32.1547 5.12786 32.3934 4.90997C32.5076 4.80601 32.6289 4.69869 32.7616 4.58462L32.9377 4.42891C33.1166 4.57377 33.748 5.08469 33.8336 5.15292C34.6404 5.81149 35.7492 6.62544 37.1788 7.07706C37.8536 7.29165 38.5154 7.40055 39.1467 7.40055C40.2307 7.40055 41.2333 7.07604 42.1262 6.43629C43.1879 5.68349 43.7262 4.80112 43.7262 3.81371C43.7262 3.45296 43.6548 3.0781 43.5136 2.69909ZM42.3 3.69051C42.3 4.33739 41.9907 4.96079 41.4292 5.44623C40.8122 5.97903 39.9862 6.27234 39.1035 6.27234C38.8304 6.27234 38.5698 6.2469 38.3291 6.19674C37.7094 6.07112 37.1141 5.85341 36.6525 5.58326C36.0342 5.22046 35.4716 4.83167 34.9038 4.43334L33.9633 3.7335L34.1361 3.58841C35.2539 2.65606 36.2073 1.90554 37.4517 1.43352C38.5013 1.03905 39.6445 1.03625 40.5882 1.42658C41.4184 1.77247 41.9966 2.37272 42.2168 3.11643C42.2718 3.30577 42.3 3.49893 42.3 3.69051ZM31.9671 3.69731L31.8224 3.82027C30.8514 4.63912 29.751 5.56728 28.2553 6.05724C27.8305 6.198 27.3824 6.26921 26.9232 6.26921C25.7931 6.26921 24.7615 5.81009 24.1634 5.0409C23.4526 4.12373 23.5318 2.98126 24.3656 2.13093C24.9999 1.48545 25.9245 1.11497 26.9018 1.11497C27.2541 1.11497 27.6068 1.16392 27.9503 1.26002C28.5502 1.42779 29.0649 1.64149 29.4802 1.89544C29.9798 2.20043 31.6061 3.42474 31.9671 3.69731Z" fill="url(#paint1_linear_13_15100)"/>
<path d="M5.0337 34.3701H3.68414L2.27054 31.3244L1.20358 32.6373V34.3701H0V28.2422H1.20358V30.6587L3.12786 28.2422H4.65055L3.10942 30.2574L5.0337 34.3701Z" fill="#131619"/>
<path d="M12.456 34.3701H11.1521L10.5686 32.9383H8.15208L7.56859 34.3701H6.2644L8.72653 28.2422H9.99415L12.456 34.3701ZM10.076 31.7163L9.39217 30.0024L8.64464 31.7163H10.076Z" fill="#131619"/>
<path d="M18.7753 28.2422L16.6508 34.37H15.365L13.1582 28.2422H14.444L16.0032 32.546L17.5077 28.2422H18.7753Z" fill="#131619"/>
<path d="M25.6779 34.3701H24.374L23.7905 32.9383H21.374L20.7905 34.3701H19.4863L21.9484 28.2422H23.2161L25.6779 34.3701ZM23.298 31.7163L22.6141 30.0024L21.8666 31.7163H23.298Z" fill="#131619"/>
<path d="M35.1246 31.8627C35.1246 32.4036 35.018 32.8687 34.8055 33.2574C34.6048 33.6225 34.3143 33.9172 33.935 34.1422C33.5549 34.3669 33.1457 34.4794 32.7083 34.4794C32.0394 34.4794 31.4545 34.2408 30.9529 33.7636C30.4513 33.2863 30.2004 32.7258 30.2004 32.0811V28.2422H31.4043V32.0357C31.4043 32.3639 31.5332 32.6499 31.7917 32.8927C32.0501 33.1362 32.3494 33.2574 32.6901 33.2574C33.1881 33.2574 33.5503 33.0511 33.7754 32.6373C33.8785 32.4552 33.9304 32.197 33.9304 31.8626V28.2422H35.1245V31.8627H35.1246Z" fill="#131619"/>
<path d="M41.6901 30.148C41.6901 30.5309 41.5957 30.8775 41.4072 31.1875C41.2187 31.4975 40.9516 31.7316 40.6049 31.8898C40.3496 32.0173 40.0061 32.081 39.5745 32.081H37.9697V34.3701H36.7661V28.2422H39.6383C40.088 28.2422 40.459 28.3275 40.7509 28.4975C41.0425 28.6678 41.272 28.9002 41.4392 29.1952C41.6065 29.4904 41.6901 29.8077 41.6901 30.148ZM40.4955 30.148C40.4955 29.9536 40.4224 29.7913 40.2768 29.6604C40.1308 29.5293 39.9452 29.4642 39.7205 29.4642H37.9697V30.8594H39.7205C39.9574 30.8594 40.1459 30.7939 40.2859 30.6629C40.4255 30.5326 40.4955 30.3612 40.4955 30.148Z" fill="#131619"/>
<path d="M44.3071 33.8142C44.3071 34.1852 44.2068 34.5147 44.0061 34.8035C43.8058 35.0923 43.5108 35.2825 43.1217 35.3734V35.018C43.3892 34.9083 43.5624 34.7289 43.6414 34.4798C43.4592 34.4798 43.3025 34.4143 43.1718 34.2841C43.0412 34.153 42.9761 33.9967 42.9761 33.8141C42.9761 33.6316 43.0412 33.4752 43.1718 33.3446C43.3025 33.2139 43.4592 33.1484 43.6414 33.1484C43.824 33.1484 43.9803 33.2139 44.1113 33.3446C44.242 33.4752 44.3071 33.6316 44.3071 33.8142Z" fill="#131619"/>
<path d="M53.3889 34.3701H48.8481V28.2422H50.0517V33.148H53.3889V34.3701Z" fill="#131619"/>
<path d="M59.5437 34.3701H55.0029V28.2422H56.2065V33.148H59.5437V34.3701Z" fill="#131619"/>
<path d="M66.0001 33.1298C65.7145 33.6279 65.3814 33.9776 65.0017 34.1783C64.6216 34.3789 64.1886 34.4793 63.7024 34.4793C62.8573 34.4793 62.2038 34.1752 61.7419 33.5673C61.2796 32.9594 61.0486 32.2059 61.0486 31.3058C61.0486 30.3639 61.298 29.6038 61.7965 29.0262C62.295 28.4489 62.9454 28.1602 63.748 28.1602C64.2342 28.1602 64.6781 28.2772 65.079 28.511C65.4804 28.7454 65.7872 29.069 66 29.4825L64.924 30.0657C64.6564 29.6038 64.2492 29.3728 63.7023 29.3728C63.2644 29.3728 62.9164 29.5476 62.6583 29.8971C62.3998 30.2468 62.2706 30.7164 62.2706 31.3058C62.2706 31.9077 62.3998 32.3836 62.6583 32.7333C62.9164 33.0823 63.2644 33.2572 63.7023 33.2572C64.237 33.2572 64.6446 33.0203 64.924 32.5459L66.0001 33.1298Z" fill="#131619"/>
<defs>
<linearGradient id="paint0_linear_13_15100" x1="21.9811" y1="10.4293" x2="45.3854" y2="15.4244" gradientUnits="userSpaceOnUse">
<stop stop-color="#D0006F"/>
<stop offset="1" stop-color="#0055B2"/>
</linearGradient>
<linearGradient id="paint1_linear_13_15100" x1="23.2318" y1="0.656502" x2="42.421" y2="7.58884" gradientUnits="userSpaceOnUse">
<stop stop-color="#D0006F"/>
<stop offset="1" stop-color="#0055B2"/>
</linearGradient>
</defs>
</svg>
